<svg width="24" height="24" viewBox="0 0 24 24" fill="none" xmlns="http://www.w3.org/2000/svg">
<path d="M1.5 0.75C1.5 0.335786 1.16421 0 0.75 0C0.335786 0 0 0.335786 0 0.75H1.5ZM0.75 23.25H0C0 23.6642 0.335786 24 0.75 24L0.75 23.25ZM23.25 24C23.6642 24 24 23.6642 24 23.25C24 22.8358 23.6642 22.5 23.25 22.5V24ZM8.25 12.75V12H7.78647L7.57918 12.4146L8.25 12.75ZM14.25 12.75V13.5H14.8649L14.9854 12.8971L14.25 12.75ZM15.75 5.25L15.5681 4.52239L15.1076 4.63751L15.0146 5.10291L15.75 5.25ZM0 0.75V23.25H1.5V0.75H0ZM0.75 24H23.25V22.5H0.75V24ZM5.92082 19.0854L8.92082 13.0854L7.57918 12.4146L4.57918 18.4146L5.92082 19.0854ZM8.25 13.5H14.25V12H8.25V13.5ZM14.9854 12.8971L16.4854 5.39709L15.0146 5.10291L13.5146 12.6029L14.9854 12.8971ZM15.9319 5.97761L21.9319 4.47761L21.5681 3.02239L15.5681 4.52239L15.9319 5.97761ZM5.25 18.75V20.25C6.07843 20.25 6.75 19.5784 6.75 18.75H5.25ZM5.25 18.75H3.75C3.75 19.5784 4.42157 20.25 5.25 20.25V18.75ZM5.25 18.75V17.25C4.42157 17.25 3.75 17.9216 3.75 18.75H5.25ZM5.25 18.75H6.75C6.75 17.9216 6.07843 17.25 5.25 17.25V18.75ZM8.25 12.75V14.25C9.07843 14.25 9.75 13.5784 9.75 12.75H8.25ZM8.25 12.75H6.75C6.75 13.5784 7.42157 14.25 8.25 14.25V12.75ZM8.25 12.75V11.25C7.42157 11.25 6.75 11.9216 6.75 12.75H8.25ZM8.25 12.75H9.75C9.75 11.9216 9.07843 11.25 8.25 11.25V12.75ZM14.25 12.75V14.25C15.0784 14.25 15.75 13.5784 15.75 12.75H14.25ZM14.25 12.75H12.75C12.75 13.5784 13.4216 14.25 14.25 14.25V12.75ZM14.25 12.75V11.25C13.4216 11.25 12.75 11.9216 12.75 12.75H14.25ZM14.25 12.75H15.75C15.75 11.9216 15.0784 11.25 14.25 11.25V12.75ZM15.75 5.25V6.75C16.5784 6.75 17.25 6.07843 17.25 5.25H15.75ZM15.75 5.25H14.25C14.25 6.07843 14.9216 6.75 15.75 6.75V5.25ZM15.75 5.25V3.75C14.9216 3.75 14.25 4.42157 14.25 5.25H15.75ZM15.75 5.25H17.25C17.25 4.42157 16.5784 3.75 15.75 3.75V5.25ZM21.75 3.75V5.25C22.5784 5.25 23.25 4.57843 23.25 3.75H21.75ZM21.75 3.75H20.25C20.25 4.57843 20.9216 5.25 21.75 5.25V3.75ZM21.75 3.75V2.25C20.9216 2.25 20.25 2.92157 20.25 3.75H21.75ZM21.75 3.75H23.25C23.25 2.92157 22.5784 2.25 21.75 2.25V3.75Z" fill="#1C1C1C"/>
</svg>
