<svg width="20" height="28" viewBox="0 0 20 28" fill="none" xmlns="http://www.w3.org/2000/svg">
<path d="M15.1 14L13.6437 10.3593C13.2185 9.29619 13 8.16173 13 7.01676V4.33853C13 3.82462 13.2904 3.35482 13.75 3.125C14.2097 2.89518 14.5 2.42538 14.5 1.91147V0.5H5.50004V1.91147C5.50004 2.42538 5.79039 2.89518 6.25004 3.125C6.70969 3.35482 7.00004 3.82462 7.00004 4.33853V7.01677C7.00004 8.16174 6.78156 9.29619 6.35633 10.3593L4.90005 14M15.1 14L18.8544 23.3858C19.6426 25.3564 18.1913 27.5 16.0689 27.5H3.93118C1.80879 27.5 0.357518 25.3564 1.14575 23.3858L4.90005 14M15.1 14H4.90005M13.7501 17.75L16.0001 23M4.03006 16.175H5.5M2.83007 19.175H4.29993M1.63008 22.175H3.09986" stroke="#1C1C1C" stroke-linecap="round" stroke-linejoin="round"/>
</svg>
