<svg width="170" height="56" viewBox="0 0 170 56" fill="none" xmlns="http://www.w3.org/2000/svg">
<path d="M34.4085 24.6L28.1005 30.9134L25.6602 28.471L28.6846 25.444L28.6859 25.4426L31.9681 22.1576L34.4085 24.6Z" fill="#4B970F"/>
<path d="M18.3025 19.3005L17.4093 18.4065L21.6544 14.1576L22.5477 15.0516L18.3025 19.3005Z" fill="#4B970F"/>
<path d="M19.2141 20.2129L23.4594 15.964L24.4815 16.9871L20.2364 21.236L19.2141 20.2129Z" fill="#4B970F"/>
<path d="M21.1479 22.1484L25.3932 17.8995L26.4154 18.9226L22.1701 23.1715L21.1479 22.1484Z" fill="#4B970F"/>
<path d="M23.0818 24.0839L27.327 19.835L28.3492 20.8581L24.104 25.107L23.0818 24.0839Z" fill="#4B970F"/>
<path d="M35.578 28.093L31.3327 32.3419L32.226 33.236L36.4712 28.9871L35.578 28.093Z" fill="#4B970F"/>
<path d="M37.3828 29.8995L33.1376 34.1484L34.1598 35.1715L38.4051 30.9226L37.3828 29.8995Z" fill="#4B970F"/>
<path d="M39.3167 31.835L35.0714 36.0839L36.0936 37.1069L40.3388 32.8581L39.3167 31.835Z" fill="#4B970F"/>
<path d="M41.2505 33.7705L37.0052 38.0194L38.0275 39.0424L42.2727 34.7936L41.2505 33.7705Z" fill="#4B970F"/>
<path fill-rule="evenodd" clip-rule="evenodd" d="M55.9518 28C55.9518 43.464 43.4266 56 27.9759 56C12.5252 56 0 43.464 0 28C0 12.536 12.5252 0 27.9759 0C43.4266 0 55.9518 12.536 55.9518 28ZM22.1103 12.789C21.8585 12.537 21.4504 12.537 21.1986 12.789L16.0418 17.9502C15.7901 18.2022 15.7901 18.6107 16.0418 18.8626L23.6481 26.4755C23.8999 26.7275 24.308 26.7275 24.5598 26.4755L26.6824 24.3511L27.3178 24.9871L24.2928 28.0148C24.041 28.2667 24.041 28.6752 24.2928 28.9272L25.513 30.1484L23.2614 32.4019C23.0097 32.6538 23.0097 33.0623 23.2614 33.3143C23.5132 33.5662 23.9212 33.5662 24.173 33.3143L26.4245 31.0608L27.6447 32.282C27.8964 32.534 28.3046 32.534 28.5563 32.282L31.5814 29.2543L32.0879 29.7613L29.9653 31.8857C29.7135 32.1377 29.7135 32.5462 29.9653 32.7981L37.5717 40.411C37.8234 40.663 38.2315 40.663 38.4832 40.411L43.6401 35.2497C43.8919 34.9978 43.8919 34.5893 43.6401 34.3373L36.0337 26.7244C35.782 26.4725 35.3738 26.4725 35.1221 26.7244L32.9995 28.8489L32.493 28.342L35.7759 25.0562C36.0277 24.8042 36.0277 24.3958 35.7759 24.1438L32.424 20.789C32.1723 20.537 31.7641 20.537 31.5123 20.789L28.2295 24.0747L27.594 23.4387L29.7166 21.3143C29.9683 21.0623 29.9683 20.6538 29.7166 20.4019L22.1103 12.789ZM21.6544 33.3742C21.6544 33.0179 21.3659 32.729 21.0099 32.729C20.6538 32.729 20.3653 33.0179 20.3653 33.3742C20.3653 34.8707 21.5774 36.0839 23.0726 36.0839C23.4286 36.0839 23.7172 35.795 23.7172 35.4387C23.7172 35.0824 23.4286 34.7936 23.0726 34.7936C22.2894 34.7936 21.6544 34.1581 21.6544 33.3742ZM18.9471 32.729C19.3031 32.729 19.5917 33.0179 19.5917 33.3742C19.5917 35.2983 21.1502 36.8581 23.0726 36.8581C23.4286 36.8581 23.7172 37.1469 23.7172 37.5032C23.7172 37.8596 23.4286 38.1484 23.0726 38.1484C20.4382 38.1484 18.3025 36.0109 18.3025 33.3742C18.3025 33.0179 18.5911 32.729 18.9471 32.729ZM17.529 33.3742C17.529 33.0179 17.2404 32.729 16.8844 32.729C16.5283 32.729 16.2398 33.0179 16.2398 33.3742C16.2398 37.1511 19.2989 40.2129 23.0726 40.2129C23.4286 40.2129 23.7172 39.924 23.7172 39.5677C23.7172 39.2114 23.4286 38.9226 23.0726 38.9226C20.011 38.9226 17.529 36.4385 17.529 33.3742Z" fill="#4B970F"/>
<path fill-rule="evenodd" clip-rule="evenodd" d="M109.226 15.8586C109.226 15.4154 108.867 15.0562 108.424 15.0562C107.982 15.0562 107.623 15.4154 107.623 15.8586V18.5683C107.622 18.5805 107.622 18.5928 107.623 18.6049V22.0991C107.622 22.1113 107.622 22.1236 107.623 22.1357V25.63L107.623 25.6349C107.622 25.6455 107.622 25.656 107.623 25.6665V29.1608C107.622 29.1729 107.622 29.1852 107.623 29.1973V32.7102C107.623 33.0219 107.803 33.3055 108.085 33.4373L110.028 34.3446V35.7113C110.028 36.1545 110.387 36.5138 110.83 36.5138C111.273 36.5138 111.632 36.1545 111.632 35.7113V34.3446L113.574 33.4373C113.856 33.3055 114.037 33.0219 114.037 32.7102V29.1977C114.037 29.1854 114.037 29.173 114.037 29.1606V25.6669C114.037 25.6546 114.037 25.6422 114.037 25.6298V22.1361C114.037 22.1238 114.037 22.1114 114.037 22.099V18.6053C114.037 18.593 114.037 18.5806 114.037 18.5682V15.8586C114.037 15.4154 113.678 15.0562 113.235 15.0562C112.792 15.0562 112.433 15.4154 112.433 15.8586V18.0373L111.632 18.3482V17.1425C111.632 16.6993 111.273 16.3401 110.83 16.3401C110.387 16.3401 110.028 16.6993 110.028 17.1425V18.382L109.226 18.0503V15.8586ZM109.226 32.1991V30.3793L110.028 30.711V32.5736L109.226 32.1991ZM109.226 28.6427L110.028 28.9744V27.1802L109.226 26.8485V28.6427ZM111.632 32.5736V30.6619L112.433 30.3509V32.1991L111.632 32.5736ZM111.632 28.9407L112.433 28.6297V26.8201L111.632 27.1311V28.9407ZM112.433 25.0989V23.2893L111.632 23.6003V25.4098L112.433 25.0989ZM110.028 25.4436V23.6494L109.226 23.3177V25.1119L110.028 25.4436ZM109.226 21.5811V19.7869L110.028 20.1186V21.9128L109.226 21.5811ZM111.632 21.879V20.0695L112.433 19.7585V21.5681L111.632 21.879Z" fill="#4B970F"/>
<path d="M84.6331 36.2347V31.3331H75.0987V26.8891H83.7189V22.347H75.0987V17.9356H84.6004V13.0668H69.9397V36.2347H84.6331Z" fill="#4B970F"/>
<path fill-rule="evenodd" clip-rule="evenodd" d="M87.2836 37.1496C87.7407 40.0579 90.712 42.9335 95.3812 42.9335C101.455 42.9335 104.067 38.8815 104.067 34.2087V19.9943H99.3322V21.7262C98.875 20.8766 97.471 19.7002 94.8262 19.7002C90.3855 19.7002 87.2836 23.36 87.2836 27.6406C87.2836 32.1501 90.5161 35.5485 94.8262 35.5485C97.1771 35.5485 98.5812 34.6008 99.1689 33.7186V34.4701C99.1689 37.411 97.6342 38.6201 95.1527 38.6201C93.2915 38.6201 91.9854 37.4764 91.6589 35.9079L87.2836 37.1496ZM95.7404 31.2351C93.7487 31.2351 92.2467 29.8627 92.2467 27.6406C92.2467 25.4186 93.8792 24.0462 95.7404 24.0462C97.6016 24.0462 99.2015 25.4186 99.2015 27.6406C99.2015 29.8627 97.7648 31.2351 95.7404 31.2351Z" fill="#4B970F"/>
<path d="M123.089 36.7248C117.995 36.7248 116.363 33.4245 116.232 31.6272L120.444 30.8757C120.51 31.9867 121.293 33.065 122.991 33.065C124.264 33.065 124.885 32.3788 124.885 31.6599C124.885 31.0717 124.493 30.5816 123.285 30.3202L121.424 29.8954C117.963 29.1438 116.591 27.1832 116.591 24.8958C116.591 21.9222 119.203 19.5041 122.828 19.5041C127.53 19.5041 129.162 22.445 129.326 24.3403L125.211 25.0919C125.081 24.0135 124.395 23.0986 122.893 23.0986C121.946 23.0986 121.13 23.6541 121.13 24.5037C121.13 25.1899 121.685 25.582 122.403 25.7127L124.558 26.1375C127.922 26.8238 129.554 28.8497 129.554 31.2351C129.554 34.0127 127.432 36.7248 123.089 36.7248Z" fill="#4B970F"/>
<path d="M138.723 15.2561H134.283V17.3474C134.283 18.8506 133.467 19.9943 131.769 19.9943H130.952V24.3403H133.826V31.3005C133.826 34.5355 135.883 36.5288 139.246 36.5288C140.813 36.5288 141.63 36.1693 141.825 36.0713V31.954C141.532 32.0194 141.042 32.1174 140.519 32.1174C139.442 32.1174 138.723 31.7579 138.723 30.4182V24.3403H141.891V19.9943H138.723V15.2561Z" fill="#4B970F"/>
<path d="M165.461 26.497C165.102 25.2553 164.123 24.0789 162.196 24.0789C160.139 24.0789 158.474 25.5167 158.474 28.1308C158.474 30.7123 160.204 32.1501 162.261 32.1501C164.188 32.1501 165.265 30.941 165.625 29.732L170 31.0717C169.282 33.9146 166.604 36.7248 162.261 36.7248C157.429 36.7248 153.543 33.163 153.543 28.1308C153.543 23.0659 157.331 19.5041 162.098 19.5041C166.572 19.5041 169.184 22.249 169.902 25.1572L165.461 26.497Z" fill="#4B970F"/>
<path fill-rule="evenodd" clip-rule="evenodd" d="M145.626 15.0562C146.069 15.0562 146.428 15.4154 146.428 15.8586V18.0503L147.23 18.382V17.1425C147.23 16.6993 147.589 16.3401 148.032 16.3401C148.474 16.3401 148.833 16.6993 148.833 17.1425V18.3482L149.635 18.0373V15.8586C149.635 15.4154 149.994 15.0562 150.437 15.0562C150.88 15.0562 151.239 15.4154 151.239 15.8586V18.5682L151.239 18.589L151.239 18.6053V22.099C151.239 22.1059 151.239 22.1129 151.239 22.1198L151.239 22.1361V25.6298C151.239 25.6376 151.239 25.6454 151.239 25.6531L151.239 25.6669V29.1606C151.239 29.1673 151.239 29.1739 151.239 29.1806L151.239 29.1977V32.7102C151.239 33.0219 151.058 33.3055 150.776 33.4373L148.833 34.3446V35.7113C148.833 36.1545 148.474 36.5138 148.032 36.5138C147.589 36.5138 147.23 36.1545 147.23 35.7113V34.3446L145.287 33.4373C145.005 33.3055 144.825 33.0219 144.825 32.7102V29.1973L144.824 29.1811L144.825 29.1608V25.6665C144.824 25.6544 144.824 25.6421 144.825 25.63V22.1357L144.824 22.1208L144.825 22.0991V18.6049C144.824 18.5928 144.824 18.5805 144.825 18.5683V15.8586C144.825 15.4154 145.184 15.0562 145.626 15.0562ZM146.428 30.3793V32.1991L147.23 32.5736V30.711L146.428 30.3793ZM147.23 28.9744L146.428 28.6427V26.8485L147.23 27.1802V28.9744ZM148.833 30.6619V32.5736L149.635 32.1991V30.3509L148.833 30.6619ZM149.635 28.6297L148.833 28.9407V27.1311L149.635 26.8201V28.6297ZM149.635 23.2893V25.0989L148.833 25.4098V23.6003L149.635 23.2893ZM147.23 23.6494V25.4436L146.428 25.1119V23.3177L147.23 23.6494ZM146.428 19.7869V21.5811L147.23 21.9128V20.1186L146.428 19.7869ZM148.833 20.0695V21.879L149.635 21.5681V19.7585L148.833 20.0695Z" fill="#4B970F"/>
</svg>
