<svg width="30" height="30" viewBox="0 0 30 30" fill="none" xmlns="http://www.w3.org/2000/svg">
<path d="M23.4375 25.5391C22.6364 26.1813 21.7605 26.734 20.825 27.1821M23.4375 25.5391C24.9094 24.3592 26.1287 22.8773 27.0017 21.1875M23.4375 25.5391C21.9205 24.4227 20.3173 23.3801 18.6491 22.4252M1.57634 16.4442C1.52588 15.9697 1.5 15.4879 1.5 15C1.5 7.54416 7.54416 1.5 15 1.5C22.4558 1.5 28.5 7.54416 28.5 15C28.5 15.3788 28.4844 15.7541 28.4538 16.125M1.57634 16.4442C1.68908 17.5043 1.92452 18.5277 2.26818 19.5M1.57634 16.4442C5.32511 16.9712 9.07841 18.0272 12.6671 19.5M20.825 27.1821C15.0404 23.3324 9.0801 20.8776 2.26818 19.5M20.825 27.1821C19.8316 27.658 18.771 28.0159 17.6613 28.2377M2.26818 19.5C2.66718 20.6289 3.21209 21.6889 3.88022 22.6573M17.6613 28.2377C16.8009 28.4098 15.911 28.5 15 28.5C10.3875 28.5 6.31537 26.1868 3.88022 22.6573M17.6613 28.2377C17.6613 28.2377 13.6009 26.2083 11.0625 25.125C8.19777 23.9025 3.88022 22.6573 3.88022 22.6573M28.4538 16.125C28.3828 16.9853 28.2312 17.8227 28.0065 18.6296M28.4538 16.125C28.4538 16.125 23.8557 16.49 20.625 17.1321M12.6671 19.5C13.7649 19.9505 14.8472 20.4401 15.9094 20.9654M12.6671 19.5C12.6671 19.5 13.9335 19.0453 15.5625 18.522M28.0065 18.6296C28.0065 18.6296 23.9447 18.8846 21.1875 19.5C19.2325 19.9364 15.9094 20.9654 15.9094 20.9654M28.0065 18.6296C27.7577 19.523 27.4194 20.379 27.0017 21.1875M15.9094 20.9654C16.8392 21.4253 17.7535 21.9126 18.6491 22.4252M27.0017 21.1875C24.2011 21.4964 21.4019 21.8087 18.6491 22.4252M20.625 14.4375C20.625 14.4375 22.3125 12.173 22.3125 10.5C22.3125 8.82704 20.625 6.5625 20.625 6.5625C20.625 6.5625 18.9375 8.82704 18.9375 10.5C18.9375 12.173 20.625 14.4375 20.625 14.4375ZM20.625 14.4375V17.1321M20.625 17.1321C20.4322 17.1704 20.2443 17.2097 20.0625 17.25C18.6878 17.5545 16.9866 18.0645 15.5625 18.522M15.5625 15.5625C15.5625 15.5625 16.6875 13.933 16.6875 12.75C16.6875 11.567 15.5625 9.9375 15.5625 9.9375C15.5625 9.9375 14.4375 11.567 14.4375 12.75C14.4375 13.933 15.5625 15.5625 15.5625 15.5625ZM15.5625 15.5625V18.522" stroke="#1C1C1C" stroke-width="1.5" stroke-linejoin="round"/>
</svg>
