<svg width="36" height="36" viewBox="0 0 36 36" fill="none" xmlns="http://www.w3.org/2000/svg">
<path fill-rule="evenodd" clip-rule="evenodd" d="M21.3748 3C20.7535 3 20.2499 3.5023 20.2499 4.1219V7.18617L19.1249 7.64986V5.91694C19.1249 5.29735 18.6213 4.79504 18 4.79504C17.3787 4.79504 16.875 5.29735 16.875 5.91694V7.60267L15.7501 7.16792V4.1219C15.7501 3.5023 15.2465 3 14.6252 3C14.004 3 13.5003 3.5023 13.5003 4.1219V7.91025C13.4999 7.92757 13.4999 7.94484 13.5003 7.96205V12.8467C13.4999 12.864 13.4999 12.8813 13.5003 12.8985V17.7831C13.4999 17.8004 13.4999 17.8177 13.5003 17.8349V22.7195C13.4999 22.7368 13.4999 22.7541 13.5003 22.7713V27.6821C13.5003 28.118 13.7535 28.5145 14.1496 28.6988L16.875 29.9673V31.878C16.875 32.4977 17.3787 33 18 33C18.6213 33 19.1249 32.4977 19.1249 31.878V29.9673L21.8504 28.6988C22.2465 28.5145 22.4997 28.118 22.4997 27.6821V22.7708C22.5001 22.7538 22.5001 22.7367 22.4997 22.7197V17.8344C22.5 17.8197 22.5001 17.805 22.4998 17.7902L22.4997 17.7832V12.898C22.5001 12.881 22.5001 12.8639 22.4997 12.8468V7.96156C22.5001 7.94457 22.5001 7.92746 22.4997 7.91035V4.1219C22.4997 3.5023 21.996 3 21.3748 3ZM20.2499 26.9676V24.4234L19.1249 24.8871V27.4912L20.2499 26.9676ZM20.2499 21.9954L19.1249 22.4592V19.9507L20.2499 19.487V21.9954ZM16.875 27.4912V24.8184L15.7501 24.3836V26.9676L16.875 27.4912ZM16.875 22.412L15.7501 21.9772V19.4472L16.875 19.882V22.412ZM15.7501 17.0408V14.5108L16.875 14.9455V17.4755L15.7501 17.0408ZM19.1249 17.5227V15.0142L20.2499 14.5505V17.059L19.1249 17.5227ZM20.2499 12.1226V9.61411L19.1249 10.0778V12.5863L20.2499 12.1226ZM16.875 12.5391V10.0091L15.7501 9.57436V12.1043L16.875 12.5391Z" fill="#1C1C1C"/>
<path fill-rule="evenodd" clip-rule="evenodd" d="M27.5623 7.5C27.0446 7.5 26.6249 7.90184 26.6249 8.39752V10.8489L25.6875 11.2199V9.83355C25.6875 9.33788 25.2678 8.93603 24.75 8.93603C24.2322 8.93603 23.8125 9.33788 23.8125 9.83355V11.1821L22.8751 10.8343V8.39752C22.8751 7.90184 22.4554 7.5 21.9377 7.5C21.42 7.5 21.0003 7.90184 21.0003 8.39752V11.4282C20.9999 11.4421 20.9999 11.4559 21.0003 11.4696V15.3773C20.9999 15.3912 20.9999 15.405 21.0003 15.4188V19.3265C20.9999 19.3403 20.9999 19.3541 21.0003 19.3679V23.2756C20.9999 23.2895 20.9999 23.3033 21.0003 23.317V27.2457C21.0003 27.5944 21.2113 27.9116 21.5413 28.059L23.8125 29.0738V30.6024C23.8125 31.0982 24.2322 31.5 24.75 31.5C25.2678 31.5 25.6875 31.0982 25.6875 30.6024V29.0738L27.9587 28.059C28.2887 27.9116 28.4997 27.5944 28.4997 27.2457V23.3167C28.5001 23.3031 28.5001 23.2894 28.4997 23.2757V19.3675C28.5 19.3558 28.5001 19.344 28.4998 19.3322L28.4997 19.3266V15.4184C28.5001 15.4048 28.5001 15.3911 28.4997 15.3774V11.4692C28.5001 11.4557 28.5001 11.442 28.4997 11.4283V8.39752C28.4997 7.90184 28.08 7.5 27.5623 7.5ZM26.6249 26.6741V24.6387L25.6875 25.0097V27.0929L26.6249 26.6741ZM26.6249 22.6963L25.6875 23.0673V21.0606L26.6249 20.6896V22.6963ZM23.8125 27.0929V24.9547L22.8751 24.6069V26.6741L23.8125 27.0929ZM23.8125 23.0296L22.8751 22.6818V20.6578L23.8125 21.0056V23.0296ZM22.8751 18.7327V16.7086L23.8125 17.0564V19.0804L22.8751 18.7327ZM25.6875 19.1182V17.1114L26.6249 16.7404V18.7472L25.6875 19.1182ZM26.6249 14.7981V12.7913L25.6875 13.1622V15.169L26.6249 14.7981ZM23.8125 15.1313V13.1073L22.8751 12.7595V14.7835L23.8125 15.1313Z" fill="#1C1C1C"/>
<path fill-rule="evenodd" clip-rule="evenodd" d="M14.0623 7.5C13.5446 7.5 13.1249 7.90184 13.1249 8.39752V10.8489L12.1875 11.2199V9.83355C12.1875 9.33788 11.7678 8.93603 11.25 8.93603C10.7322 8.93603 10.3125 9.33788 10.3125 9.83355V11.1821L9.3751 10.8343V8.39752C9.3751 7.90184 8.9554 7.5 8.43768 7.5C7.91997 7.5 7.50027 7.90184 7.50027 8.39752V11.4282C7.49991 11.4421 7.49991 11.4559 7.50027 11.4696V15.3773C7.49991 15.3912 7.49991 15.405 7.50027 15.4188V19.3265C7.49991 19.3403 7.49991 19.3541 7.50027 19.3679V23.2756C7.49991 23.2895 7.49991 23.3033 7.50027 23.317V27.2457C7.50027 27.5944 7.71126 27.9116 8.04131 28.059L10.3125 29.0738V30.6024C10.3125 31.0982 10.7322 31.5 11.25 31.5C11.7678 31.5 12.1875 31.0982 12.1875 30.6024V29.0738L14.4587 28.059C14.7887 27.9116 14.9997 27.5944 14.9997 27.2457V23.3167C15.0001 23.3031 15.0001 23.2894 14.9997 23.2757V19.3675C15 19.3558 15.0001 19.344 14.9998 19.3322L14.9997 19.3266V15.4184C15.0001 15.4048 15.0001 15.3911 14.9997 15.3774V11.4692C15.0001 11.4557 15.0001 11.442 14.9997 11.4283V8.39752C14.9997 7.90184 14.58 7.5 14.0623 7.5ZM13.1249 26.6741V24.6387L12.1875 25.0097V27.0929L13.1249 26.6741ZM13.1249 22.6963L12.1875 23.0673V21.0606L13.1249 20.6896V22.6963ZM10.3125 27.0929V24.9547L9.3751 24.6069V26.6741L10.3125 27.0929ZM10.3125 23.0296L9.3751 22.6818V20.6578L10.3125 21.0056V23.0296ZM9.3751 18.7327V16.7086L10.3125 17.0564V19.0804L9.3751 18.7327ZM12.1875 19.1182V17.1114L13.1249 16.7404V18.7472L12.1875 19.1182ZM13.1249 14.7981V12.7913L12.1875 13.1622V15.169L13.1249 14.7981ZM10.3125 15.1313V13.1073L9.3751 12.7595V14.7835L10.3125 15.1313Z" fill="#1C1C1C"/>
</svg>
