<svg width="30" height="25" viewBox="0 0 30 25" fill="none" xmlns="http://www.w3.org/2000/svg">
<path d="M8.25 15.1406V15C8.25 13.4467 9.5092 12.1875 11.0625 12.1875H18.9375C20.4908 12.1875 21.75 13.4467 21.75 15V15.1406M8.25 15.1406H4.3125C2.7592 15.1406 1.5 16.3998 1.5 17.9531V24H8.25M8.25 15.1406V24M21.75 15.1406H25.6875C27.2408 15.1406 28.5 16.3998 28.5 17.9531V24H21.75M21.75 15.1406V24M21.75 24H8.25M19.3875 5.71875C19.3875 8.0487 17.4987 9.9375 15.1687 9.9375C12.8388 9.9375 10.95 8.0487 10.95 5.71875C10.95 3.3888 12.8388 1.5 15.1687 1.5C17.4987 1.5 19.3875 3.3888 19.3875 5.71875ZM26.8687 9.2625C26.8687 10.8779 25.5592 12.1875 23.9437 12.1875C22.3283 12.1875 21.0187 10.8779 21.0187 9.2625C21.0187 7.64707 22.3283 6.3375 23.9437 6.3375C25.5592 6.3375 26.8687 7.64707 26.8687 9.2625ZM9.31875 9.2625C9.31875 10.8779 8.00918 12.1875 6.39375 12.1875C4.77832 12.1875 3.46875 10.8779 3.46875 9.2625C3.46875 7.64707 4.77832 6.3375 6.39375 6.3375C8.00918 6.3375 9.31875 7.64707 9.31875 9.2625Z" stroke="#333333" stroke-width="1.5" stroke-linecap="round" stroke-linejoin="round"/>
</svg>
