<svg width="20" height="20" viewBox="0 0 20 20" fill="none" xmlns="http://www.w3.org/2000/svg">
<path d="M17.4999 19.75H17.3724C2.63494 18.9025 0.542441 6.4675 0.249941 2.6725C0.226373 2.37744 0.261258 2.08062 0.352598 1.79906C0.443937 1.5175 0.589936 1.25673 0.78223 1.03169C0.974523 0.80665 1.20933 0.621766 1.4732 0.48763C1.73707 0.353493 2.02481 0.272741 2.31994 0.250001H6.45244C6.75286 0.24971 7.04644 0.339633 7.29517 0.508122C7.54389 0.676611 7.73629 0.915903 7.84744 1.195L8.98744 4C9.09721 4.27266 9.12444 4.57156 9.06578 4.85957C9.00711 5.14758 8.86512 5.412 8.65744 5.62L7.05994 7.2325C7.30948 8.65056 7.98858 9.95775 9.00536 10.9772C10.0221 11.9967 11.3275 12.6792 12.7449 12.9325L14.3724 11.32C14.5836 11.1146 14.8505 10.9759 15.1399 10.9213C15.4293 10.8666 15.7284 10.8983 15.9999 11.0125L18.8274 12.145C19.1023 12.2597 19.3369 12.4536 19.5012 12.702C19.6654 12.9504 19.7521 13.2422 19.7499 13.54V17.5C19.7499 18.0967 19.5129 18.669 19.0909 19.091C18.669 19.5129 18.0967 19.75 17.4999 19.75ZM2.49994 1.75C2.30103 1.75 2.11026 1.82902 1.96961 1.96967C1.82896 2.11032 1.74994 2.30109 1.74994 2.5V2.56C2.09494 7 4.30744 17.5 17.4549 18.25C17.5535 18.2561 17.6522 18.2427 17.7456 18.2105C17.8389 18.1783 17.925 18.1281 17.9988 18.0626C18.0727 17.9971 18.1329 17.9176 18.176 17.8288C18.2191 17.74 18.2442 17.6436 18.2499 17.545V13.54L15.4224 12.4075L13.2699 14.545L12.9099 14.5C6.38494 13.6825 5.49994 7.1575 5.49994 7.09L5.45494 6.73L7.58494 4.5775L6.45994 1.75H2.49994Z" fill="#1C1C1C"/>
</svg>
