<svg width="32" height="32" viewBox="0 0 32 32" fill="none" xmlns="http://www.w3.org/2000/svg">
<path d="M12.1596 19.9855L10.2755 18.1014L18.3915 9.98546L22.1596 13.7536L14.0436 21.8695L12.1596 19.9855ZM12.1596 19.9855L9.11611 23.0289M5.2029 11L11 5.2029M5.2029 11L1 6.7971L6.7971 1L11 5.2029M5.2029 11L8.05072 13.8478L13.8478 8.05072L11 5.2029M20.8551 26.6522L26.6522 20.8551M20.8551 26.6522L18.1522 23.9493L23.9493 18.1522L26.6522 20.8551M20.8551 26.6522L25.2029 31L31 25.2029L26.6522 20.8551M8.39139 25.9275C7.11073 25.9275 6.07254 24.8893 6.07254 23.6086M8.39124 28.2463C5.82992 28.2463 3.75356 26.17 3.75356 23.6086M8.39109 30.5652C4.54911 30.5652 1.43457 27.4506 1.43457 23.6086" stroke="#1C1C1C" stroke-width="1.2" stroke-linecap="round" stroke-linejoin="round"/>
</svg>
