<svg width="32" height="32" viewBox="0 0 32 32" fill="none" xmlns="http://www.w3.org/2000/svg">
<path d="M8.5 29.5L7 31" stroke="#1C1C1C" stroke-width="1.5" stroke-linecap="round"/>
<path d="M13 29.5L11.5 31" stroke="#1C1C1C" stroke-width="1.5" stroke-linecap="round"/>
<path d="M17.5 29.5L16 31" stroke="#1C1C1C" stroke-width="1.5" stroke-linecap="round"/>
<path d="M22 29.5L20.5 31" stroke="#1C1C1C" stroke-width="1.5" stroke-linecap="round"/>
<path d="M26.5 29.5L25 31" stroke="#1C1C1C" stroke-width="1.5" stroke-linecap="round"/>
<path d="M13 4V1" stroke="#1C1C1C" stroke-width="1.5" stroke-linecap="round" stroke-linejoin="round"/>
<path d="M19 6.12132L21.1213 4" stroke="#1C1C1C" stroke-width="1.5" stroke-linecap="round" stroke-linejoin="round"/>
<path d="M6.12132 6.12132L4 4" stroke="#1C1C1C" stroke-width="1.5" stroke-linecap="round" stroke-linejoin="round"/>
<path d="M4 13H1" stroke="#1C1C1C" stroke-width="1.5" stroke-linecap="round" stroke-linejoin="round"/>
<path d="M19.0039 14.69L18.4045 14.7149L18.4229 15.1597L18.854 15.271L19.0039 14.69ZM27.7476 13.0105L27.1814 13.209L27.335 13.6469L27.7974 13.6084L27.7476 13.0105ZM28.3373 18.9813L27.8924 19.3839L28.0986 19.6117L28.404 19.5775L28.3373 18.9813ZM22.9522 17.9919L22.4073 18.243L22.669 18.8109L23.2256 18.5259L22.9522 17.9919ZM18.4 14.5C18.4 14.572 18.4015 14.6436 18.4045 14.7149L19.6034 14.6651C19.6011 14.6104 19.6 14.5554 19.6 14.5H18.4ZM23.5 9.4C20.6833 9.4 18.4 11.6833 18.4 14.5H19.6C19.6 12.3461 21.3461 10.6 23.5 10.6V9.4ZM28.3138 12.8119C27.6173 10.8257 25.7259 9.4 23.5 9.4V10.6C25.2005 10.6 26.6483 11.6887 27.1814 13.209L28.3138 12.8119ZM28 12.4C27.8983 12.4 27.7976 12.4042 27.6978 12.4125L27.7974 13.6084C27.8641 13.6028 27.9317 13.6 28 13.6V12.4ZM31.6 16C31.6 14.0118 29.9882 12.4 28 12.4V13.6C29.3255 13.6 30.4 14.6745 30.4 16H31.6ZM28.404 19.5775C30.2023 19.3763 31.6 17.8518 31.6 16H30.4C30.4 17.2339 29.4684 18.251 28.2706 18.385L28.404 19.5775ZM25 18.1C26.1472 18.1 27.178 18.5945 27.8924 19.3839L28.7821 18.5786C27.8498 17.5485 26.5002 16.9 25 16.9V18.1ZM23.2256 18.5259C23.7572 18.2538 24.3598 18.1 25 18.1V16.9C24.1653 16.9 23.3757 17.101 22.6788 17.4578L23.2256 18.5259ZM18.854 15.271C20.4342 15.6789 21.7358 16.7858 22.4073 18.243L23.4971 17.7408C22.677 15.961 21.0882 14.6083 19.1539 14.1091L18.854 15.271Z" fill="#1C1C1C"/>
<path d="M12.0478 17.9919L11.7744 18.5259L12.331 18.8109L12.5927 18.243L12.0478 17.9919ZM22.9522 17.9919L22.4073 18.243L22.669 18.8109L23.2256 18.5259L22.9522 17.9919ZM10 25.9C7.84609 25.9 6.1 24.1539 6.1 22H4.9C4.9 24.8167 7.18335 27.1 10 27.1V25.9ZM6.1 22C6.1 19.8461 7.84609 18.1 10 18.1V16.9C7.18335 16.9 4.9 19.1833 4.9 22H6.1ZM10 18.1C10.6402 18.1 11.2428 18.2538 11.7744 18.5259L12.3212 17.4578C11.6243 17.101 10.8347 16.9 10 16.9V18.1ZM12.5927 18.243C13.4481 16.3866 15.3244 15.1 17.5 15.1V13.9C14.8389 13.9 12.547 15.4748 11.5029 17.7408L12.5927 18.243ZM17.5 15.1C19.6756 15.1 21.5519 16.3866 22.4073 18.243L23.4971 17.7408C22.453 15.4748 20.1611 13.9 17.5 13.9V15.1ZM23.2256 18.5259C23.7572 18.2538 24.3598 18.1 25 18.1V16.9C24.1653 16.9 23.3757 17.101 22.6788 17.4578L23.2256 18.5259ZM25 18.1C27.1539 18.1 28.9 19.8461 28.9 22H30.1C30.1 19.1833 27.8167 16.9 25 16.9V18.1ZM28.9 22C28.9 24.1539 27.1539 25.9 25 25.9V27.1C27.8167 27.1 30.1 24.8167 30.1 22H28.9ZM25 25.9H17.5V27.1H25V25.9ZM17.5 25.9H10V27.1H17.5V25.9Z" fill="#1C1C1C"/>
<path fill-rule="evenodd" clip-rule="evenodd" d="M7.75 13C7.75 10.1005 10.1005 7.75 13 7.75C15.8995 7.75 18.25 10.1005 18.25 13C18.25 13.5295 18.1716 14.0408 18.0258 14.5227C18.5369 14.5671 19.0298 14.6756 19.4962 14.8401C19.6615 14.2551 19.75 13.6379 19.75 13C19.75 9.27208 16.7279 6.25 13 6.25C9.27208 6.25 6.25 9.27208 6.25 13C6.25 14.8962 7.03188 16.6098 8.29084 17.8359C8.81782 17.6194 9.39496 17.5 10 17.5C10.1049 17.5 10.209 17.5036 10.3121 17.5107C8.77761 16.5943 7.75 14.9172 7.75 13Z" fill="#1C1C1C"/>
</svg>
