<svg width="36" height="36" viewBox="0 0 36 36" fill="none" xmlns="http://www.w3.org/2000/svg">
<path d="M12.498 3.03516C11.5019 4.125 11.373 4.85156 12.2519 4.85156C13.0019 4.85156 13.998 4.24805 14.373 3.63867C14.748 2.91211 16.5 2.42578 18.123 2.42578C19.752 2.42578 21.498 2.91211 21.873 3.63867C22.248 4.24805 23.373 4.85156 24.123 4.85156C25.002 4.85156 24.498 4.00195 23.25 3.03516C19.998 0.726562 14.5019 0.726562 12.498 3.03516Z" fill="#1C1C1C"/>
<path d="M15.7501 4.73438C15.3751 5.33789 16.377 5.70117 18.1231 5.70117C19.8751 5.70117 20.877 5.33789 20.502 4.73438C20.127 4.125 19.1251 3.63867 18.1231 3.63867C17.127 3.63867 16.1251 4.125 15.7501 4.73438Z" fill="#1C1C1C"/>
<path d="M17.127 9.33992C16.6231 10.0723 13.875 11.0391 10.875 11.5255C3.25199 12.7384 1.37699 14.1973 7.75199 14.0743C12.627 13.9512 13.2481 14.3145 15 17.836C17.127 22.4473 21.75 23.2969 22.875 19.4122C23.625 16.6231 29.625 14.8009 31.6231 16.8634C32.7481 18.0762 32.3731 18.1993 29.877 17.5899C24.1231 16.2598 21.4981 22.8106 26.625 25.963C30.1231 28.1485 33.1231 25.4766 33.375 19.6524C33.4981 14.1973 33.252 13.9512 24.627 12.7384C20.7481 12.1348 18.75 11.2852 18.4981 9.82625C18.252 8.49031 17.7481 8.37312 17.127 9.33992ZM30.627 21.838C30.627 22.8106 29.625 23.7774 28.5 24.0235C26.877 24.2637 26.25 23.6602 26.25 21.838C26.25 20.0157 26.877 19.4122 28.5 19.6524C29.625 19.8985 30.627 20.8653 30.627 21.838Z" fill="#1C1C1C"/>
<path d="M27.498 21.8379C27.498 22.4473 28.125 23.0508 28.875 23.0508C29.502 23.0508 29.748 22.4473 29.373 21.8379C28.998 21.1113 28.377 20.625 28.002 20.625C27.75 20.625 27.498 21.1113 27.498 21.8379Z" fill="#1C1C1C"/>
<path d="M4.00195 16.0137C2.12695 17.836 2.12695 23.4141 4.00195 25.2364C7.37695 28.5118 15 25.2364 15 20.3848C15 16.0137 7.24805 12.8614 4.00195 16.0137ZM11.877 20.6251C11.877 22.8106 11.127 23.7774 9 24.0235C7.37695 24.2637 5.87695 23.6602 5.50195 22.5645C4.24805 19.4122 6 16.7403 9 17.2266C11.127 17.4727 11.877 18.4395 11.877 20.6251Z" fill="#1C1C1C"/>
<path d="M6.25195 20.6249C6.25195 22.4471 6.87305 23.0507 8.50195 22.8104C9.62695 22.5643 10.623 21.5975 10.623 20.6249C10.623 19.6522 9.62695 18.6854 8.50195 18.4393C6.87305 18.1991 6.25195 18.8026 6.25195 20.6249Z" fill="#1C1C1C"/>
<path d="M2.50195 28.875C2.50195 29.4844 9.49805 29.9648 18.123 29.8477C26.748 29.8477 33.75 29.3613 33.75 28.875C33.75 28.3887 26.748 27.9023 18.123 27.9023C9.49805 27.9023 2.50195 28.3887 2.50195 28.875Z" fill="#1C1C1C"/>
</svg>
